<svg width="28" height="36" viewBox="0 0 28 36" fill="none" xmlns="http://www.w3.org/2000/svg">
  <g filter="url(#filter0_f_127_260)">
    <path d="M14.5281 4.77221C14.2142 4.58239 13.8208 4.58249 13.5068 4.77221C13.4508 4.80603 12.118 5.61822 10.6875 7.04934C9.05943 8.67811 7.11881 11.3122 7.11872 14.6117C7.11872 15.8343 7.24571 17.1496 7.44458 18.4605C6.72434 19.3798 6.092 20.5038 5.55796 21.8164C3.7503 26.2592 5.31609 30.548 5.38359 30.7285C5.48851 31.0087 5.71475 31.2263 5.9988 31.3201C6.28285 31.4139 6.59419 31.3738 6.84519 31.211L10.9721 28.5361H17.0626L21.1896 31.211C21.4407 31.3737 21.7518 31.4138 22.0359 31.3201C22.1843 31.2711 22.3169 31.1884 22.4247 31.0805C22.5233 30.9819 22.6011 30.8624 22.6513 30.7286C22.7188 30.5481 24.2846 26.2594 22.4769 21.8165C21.8793 20.3477 21.217 19.2605 20.5905 18.4584C20.7892 17.1483 20.9161 15.8338 20.9161 14.612C20.9162 8.7013 14.7889 4.9299 14.5281 4.77221ZM9.5605 27.0969L6.90934 28.8153C6.62584 27.4144 6.397 24.9951 7.38723 22.5613C7.5792 22.0897 7.77704 21.6689 7.97516 21.2917C8.52251 23.7856 9.19564 25.9774 9.5605 27.0969ZM20.6477 22.5612C21.6317 24.9796 21.4038 27.4061 21.122 28.8128L18.4744 27.0969C18.8394 25.9771 19.5128 23.7841 20.0603 21.2891C20.2585 21.6681 20.4558 22.0896 20.6477 22.5612ZM17.7698 15.1826C17.7698 16.1853 17.3795 17.128 16.6708 17.837C15.962 18.5461 15.0197 18.9366 14.0175 18.9365C11.9484 18.9365 10.265 17.2524 10.265 15.1825C10.265 14.1797 10.6553 13.2369 11.364 12.5279C12.0727 11.8189 13.015 11.4283 14.0174 11.4285C16.0867 11.4285 17.7699 13.1125 17.7698 15.1826ZM14.0175 13.4043C14.9976 13.4043 15.7951 14.2021 15.795 15.1826C15.7949 15.6575 15.6101 16.1041 15.2743 16.44C14.9386 16.7758 14.4923 16.9608 14.0175 16.9608C13.0373 16.9608 12.2399 16.1631 12.24 15.1826C12.24 14.7075 12.4249 14.261 12.7606 13.9252C13.0963 13.5893 13.5426 13.4043 14.0175 13.4043Z" fill="url(#paint0_linear_127_260)" />
  </g>
  <path d="M14.5281 4.77221C14.2142 4.58239 13.8208 4.58249 13.5068 4.77221C13.4508 4.80603 12.118 5.61822 10.6875 7.04934C9.05943 8.67811 7.11881 11.3122 7.11872 14.6117C7.11872 15.8343 7.24571 17.1496 7.44458 18.4605C6.72434 19.3798 6.092 20.5038 5.55796 21.8164C3.7503 26.2592 5.31609 30.548 5.38359 30.7285C5.48851 31.0087 5.71475 31.2263 5.9988 31.3201C6.28285 31.4139 6.59419 31.3738 6.84519 31.211L10.9721 28.5361H17.0626L21.1896 31.211C21.4407 31.3737 21.7518 31.4138 22.0359 31.3201C22.1843 31.2711 22.3169 31.1884 22.4247 31.0805C22.5233 30.9819 22.6011 30.8624 22.6513 30.7286C22.7188 30.5481 24.2846 26.2594 22.4769 21.8165C21.8793 20.3477 21.217 19.2605 20.5905 18.4584C20.7892 17.1483 20.9161 15.8338 20.9161 14.612C20.9162 8.7013 14.7889 4.9299 14.5281 4.77221ZM9.5605 27.0969L6.90934 28.8153C6.62584 27.4144 6.397 24.9951 7.38723 22.5613C7.5792 22.0897 7.77704 21.6689 7.97516 21.2917C8.52251 23.7856 9.19564 25.9774 9.5605 27.0969ZM20.6477 22.5612C21.6317 24.9796 21.4038 27.4061 21.122 28.8128L18.4744 27.0969C18.8394 25.9771 19.5128 23.7841 20.0603 21.2891C20.2585 21.6681 20.4558 22.0896 20.6477 22.5612ZM17.7698 15.1826C17.7698 16.1853 17.3795 17.128 16.6708 17.837C15.962 18.5461 15.0197 18.9366 14.0175 18.9365C11.9484 18.9365 10.265 17.2524 10.265 15.1825C10.265 14.1797 10.6553 13.2369 11.364 12.5279C12.0727 11.8189 13.015 11.4283 14.0174 11.4285C16.0867 11.4285 17.7699 13.1125 17.7698 15.1826ZM14.0175 13.4043C14.9976 13.4043 15.7951 14.2021 15.795 15.1826C15.7949 15.6575 15.6101 16.1041 15.2743 16.44C14.9386 16.7758 14.4923 16.9608 14.0175 16.9608C13.0373 16.9608 12.2399 16.1631 12.24 15.1826C12.24 14.7075 12.4249 14.261 12.7606 13.9252C13.0963 13.5893 13.5426 13.4043 14.0175 13.4043Z" fill="url(#paint1_linear_127_260)" />
  <defs>
    <filter id="filter0_f_127_260" x="0.689941" y="0.629883" width="26.6548" height="34.74" filterUnits="userSpaceOnUse" color-interpolation-filters="sRGB">
      <feFlood flood-opacity="0" result="BackgroundImageFix" />
      <feBlend mode="normal" in="SourceGraphic" in2="BackgroundImageFix" result="shape" />
      <feGaussianBlur stdDeviation="2" result="effect1_foregroundBlur_127_260" />
    </filter>
    <linearGradient id="paint0_linear_127_260" x1="14.0174" y1="4.62988" x2="14.0174" y2="31.3699" gradientUnits="userSpaceOnUse">
      <stop stop-color="#2FB8FF" />
      <stop offset="1" stop-color="#9EECD9" />
    </linearGradient>
    <linearGradient id="paint1_linear_127_260" x1="14.0174" y1="4.62988" x2="14.0174" y2="31.3699" gradientUnits="userSpaceOnUse">
      <stop stop-color="#2FB8FF" />
      <stop offset="1" stop-color="#9EECD9" />
    </linearGradient>
  </defs>
</svg>