<svg class="icon-earn" width="56" height="57" viewBox="0 0 56 57" fill="none" xmlns="http://www.w3.org/2000/svg"><g filter="url(#filter0_f_0_3199)"><path d="M21.2708 13.9583C21.2708 13.3025 20.7391 12.7708 20.0833 12.7708C19.4275 12.7708 18.8958 13.3025 18.8958 13.9583V16.4588C16.6169 16.6413 15.1208 17.0892 14.0216 18.1883C12.9225 19.2875 12.4746 20.7835 12.2921 23.0625H43.7078C43.5253 20.7835 43.0774 19.2875 41.9783 18.1883C40.8792 17.0892 39.3831 16.6413 37.1041 16.4588V13.9583C37.1041 13.3025 36.5725 12.7708 35.9166 12.7708C35.2608 12.7708 34.7291 13.3025 34.7291 13.9583V16.3537C33.6758 16.3333 32.4951 16.3333 31.1666 16.3333H24.8333C23.5048 16.3333 22.3241 16.3333 21.2708 16.3537V13.9583Z" fill="url(#paint0_linear_0_3199)" fill-opacity="0.6"></path><path fill-rule="evenodd" clip-rule="evenodd" d="M12.1666 29C12.1666 27.6715 12.1666 26.4908 12.1871 25.4375H43.8129C43.8333 26.4908 43.8333 27.6715 43.8333 29V32.1666C43.8333 38.1378 43.8333 41.1233 41.9783 42.9783C40.1233 44.8333 37.1377 44.8333 31.1666 44.8333H24.8333C18.8622 44.8333 15.8766 44.8333 14.0216 42.9783C12.1666 41.1233 12.1666 38.1378 12.1666 32.1666V29ZM35.9166 32.1666C36.7911 32.1666 37.5 31.4578 37.5 30.5833C37.5 29.7089 36.7911 29 35.9166 29C35.0422 29 34.3333 29.7089 34.3333 30.5833C34.3333 31.4578 35.0422 32.1666 35.9166 32.1666ZM35.9166 38.5C36.7911 38.5 37.5 37.7911 37.5 36.9166C37.5 36.0422 36.7911 35.3333 35.9166 35.3333C35.0422 35.3333 34.3333 36.0422 34.3333 36.9166C34.3333 37.7911 35.0422 38.5 35.9166 38.5ZM29.5833 30.5833C29.5833 31.4578 28.8744 32.1666 28 32.1666C27.1255 32.1666 26.4166 31.4578 26.4166 30.5833C26.4166 29.7089 27.1255 29 28 29C28.8744 29 29.5833 29.7089 29.5833 30.5833ZM29.5833 36.9166C29.5833 37.7911 28.8744 38.5 28 38.5C27.1255 38.5 26.4166 37.7911 26.4166 36.9166C26.4166 36.0422 27.1255 35.3333 28 35.3333C28.8744 35.3333 29.5833 36.0422 29.5833 36.9166ZM20.0833 32.1666C20.9577 32.1666 21.6666 31.4578 21.6666 30.5833C21.6666 29.7089 20.9577 29 20.0833 29C19.2088 29 18.5 29.7089 18.5 30.5833C18.5 31.4578 19.2088 32.1666 20.0833 32.1666ZM20.0833 38.5C20.9577 38.5 21.6666 37.7911 21.6666 36.9166C21.6666 36.0422 20.9577 35.3333 20.0833 35.3333C19.2088 35.3333 18.5 36.0422 18.5 36.9166C18.5 37.7911 19.2088 38.5 20.0833 38.5Z" fill="url(#paint1_linear_0_3199)" fill-opacity="0.6"></path></g><g filter="url(#filter1_f_0_3199)"><path d="M21.2708 13.9583C21.2708 13.3025 20.7391 12.7708 20.0833 12.7708C19.4275 12.7708 18.8958 13.3025 18.8958 13.9583V16.4588C16.6169 16.6413 15.1208 17.0892 14.0216 18.1883C12.9225 19.2875 12.4746 20.7835 12.2921 23.0625H43.7078C43.5253 20.7835 43.0774 19.2875 41.9783 18.1883C40.8792 17.0892 39.3831 16.6413 37.1041 16.4588V13.9583C37.1041 13.3025 36.5725 12.7708 35.9166 12.7708C35.2608 12.7708 34.7291 13.3025 34.7291 13.9583V16.3537C33.6758 16.3333 32.4951 16.3333 31.1666 16.3333H24.8333C23.5048 16.3333 22.3241 16.3333 21.2708 16.3537V13.9583Z" fill="url(#paint2_linear_0_3199)" fill-opacity="0.6"></path><path fill-rule="evenodd" clip-rule="evenodd" d="M12.1666 29C12.1666 27.6715 12.1666 26.4908 12.1871 25.4375H43.8129C43.8333 26.4908 43.8333 27.6715 43.8333 29V32.1666C43.8333 38.1378 43.8333 41.1233 41.9783 42.9783C40.1233 44.8333 37.1377 44.8333 31.1666 44.8333H24.8333C18.8622 44.8333 15.8766 44.8333 14.0216 42.9783C12.1666 41.1233 12.1666 38.1378 12.1666 32.1666V29ZM35.9166 32.1666C36.7911 32.1666 37.5 31.4578 37.5 30.5833C37.5 29.7089 36.7911 29 35.9166 29C35.0422 29 34.3333 29.7089 34.3333 30.5833C34.3333 31.4578 35.0422 32.1666 35.9166 32.1666ZM35.9166 38.5C36.7911 38.5 37.5 37.7911 37.5 36.9166C37.5 36.0422 36.7911 35.3333 35.9166 35.3333C35.0422 35.3333 34.3333 36.0422 34.3333 36.9166C34.3333 37.7911 35.0422 38.5 35.9166 38.5ZM29.5833 30.5833C29.5833 31.4578 28.8744 32.1666 28 32.1666C27.1255 32.1666 26.4166 31.4578 26.4166 30.5833C26.4166 29.7089 27.1255 29 28 29C28.8744 29 29.5833 29.7089 29.5833 30.5833ZM29.5833 36.9166C29.5833 37.7911 28.8744 38.5 28 38.5C27.1255 38.5 26.4166 37.7911 26.4166 36.9166C26.4166 36.0422 27.1255 35.3333 28 35.3333C28.8744 35.3333 29.5833 36.0422 29.5833 36.9166ZM20.0833 32.1666C20.9577 32.1666 21.6666 31.4578 21.6666 30.5833C21.6666 29.7089 20.9577 29 20.0833 29C19.2088 29 18.5 29.7089 18.5 30.5833C18.5 31.4578 19.2088 32.1666 20.0833 32.1666ZM20.0833 38.5C20.9577 38.5 21.6666 37.7911 21.6666 36.9166C21.6666 36.0422 20.9577 35.3333 20.0833 35.3333C19.2088 35.3333 18.5 36.0422 18.5 36.9166C18.5 37.7911 19.2088 38.5 20.0833 38.5Z" fill="url(#paint3_linear_0_3199)" fill-opacity="0.6"></path></g><path d="M21.2709 13.9583C21.2709 13.3025 20.7392 12.7708 20.0834 12.7708C19.4275 12.7708 18.8959 13.3025 18.8959 13.9583V16.4588C16.6169 16.6413 15.1208 17.0892 14.0217 18.1883C12.9225 19.2875 12.4747 20.7835 12.2922 23.0625H43.7079C43.5254 20.7835 43.0775 19.2875 41.9784 18.1883C40.8792 17.0892 39.3831 16.6413 37.1042 16.4588V13.9583C37.1042 13.3025 36.5725 12.7708 35.9167 12.7708C35.2608 12.7708 34.7292 13.3025 34.7292 13.9583V16.3537C33.6758 16.3333 32.4952 16.3333 31.1667 16.3333H24.8334C23.5049 16.3333 22.3242 16.3333 21.2709 16.3537V13.9583Z" fill="url(#paint4_linear_0_3199)"></path><path fill-rule="evenodd" clip-rule="evenodd" d="M12.1667 29C12.1667 27.6715 12.1667 26.4908 12.1871 25.4375H43.8129C43.8334 26.4908 43.8334 27.6715 43.8334 29V32.1666C43.8334 38.1378 43.8334 41.1233 41.9784 42.9783C40.1234 44.8333 37.1378 44.8333 31.1667 44.8333H24.8334C18.8622 44.8333 15.8767 44.8333 14.0217 42.9783C12.1667 41.1233 12.1667 38.1378 12.1667 32.1666V29ZM35.9167 32.1666C36.7911 32.1666 37.5 31.4578 37.5 30.5833C37.5 29.7089 36.7911 29 35.9167 29C35.0422 29 34.3334 29.7089 34.3334 30.5833C34.3334 31.4578 35.0422 32.1666 35.9167 32.1666ZM35.9167 38.5C36.7911 38.5 37.5 37.7911 37.5 36.9166C37.5 36.0422 36.7911 35.3333 35.9167 35.3333C35.0422 35.3333 34.3334 36.0422 34.3334 36.9166C34.3334 37.7911 35.0422 38.5 35.9167 38.5ZM29.5834 30.5833C29.5834 31.4578 28.8745 32.1666 28 32.1666C27.1256 32.1666 26.4167 31.4578 26.4167 30.5833C26.4167 29.7089 27.1256 29 28 29C28.8745 29 29.5834 29.7089 29.5834 30.5833ZM29.5834 36.9166C29.5834 37.7911 28.8745 38.5 28 38.5C27.1256 38.5 26.4167 37.7911 26.4167 36.9166C26.4167 36.0422 27.1256 35.3333 28 35.3333C28.8745 35.3333 29.5834 36.0422 29.5834 36.9166ZM20.0834 32.1666C20.9578 32.1666 21.6667 31.4578 21.6667 30.5833C21.6667 29.7089 20.9578 29 20.0834 29C19.2089 29 18.5 29.7089 18.5 30.5833C18.5 31.4578 19.2089 32.1666 20.0834 32.1666ZM20.0834 38.5C20.9578 38.5 21.6667 37.7911 21.6667 36.9166C21.6667 36.0422 20.9578 35.3333 20.0834 35.3333C19.2089 35.3333 18.5 36.0422 18.5 36.9166C18.5 37.7911 19.2089 38.5 20.0834 38.5Z" fill="url(#paint5_linear_0_3199)"></path><defs><filter id="filter0_f_0_3199" x="0.166626" y="0.770813" width="55.6667" height="56.0625" filterUnits="userSpaceOnUse" color-interpolation-filters="sRGB"><feFlood flood-opacity="0" result="BackgroundImageFix"></feFlood><feBlend mode="normal" in="SourceGraphic" in2="BackgroundImageFix" result="shape"></feBlend><feGaussianBlur stdDeviation="6" result="effect1_foregroundBlur_0_3199"></feGaussianBlur></filter><filter id="filter1_f_0_3199" x="8.16663" y="8.77081" width="39.6667" height="40.0625" filterUnits="userSpaceOnUse" color-interpolation-filters="sRGB"><feFlood flood-opacity="0" result="BackgroundImageFix"></feFlood><feBlend mode="normal" in="SourceGraphic" in2="BackgroundImageFix" result="shape"></feBlend><feGaussianBlur stdDeviation="2" result="effect1_foregroundBlur_0_3199"></feGaussianBlur></filter><linearGradient id="paint0_linear_0_3199" x1="28" y1="12.7708" x2="28" y2="44.8333" gradientUnits="userSpaceOnUse"><stop stop-color="#2FB8FF"></stop><stop offset="1" stop-color="#9EECD9"></stop></linearGradient><linearGradient id="paint1_linear_0_3199" x1="28" y1="12.7708" x2="28" y2="44.8333" gradientUnits="userSpaceOnUse"><stop stop-color="#2FB8FF"></stop><stop offset="1" stop-color="#9EECD9"></stop></linearGradient><linearGradient id="paint2_linear_0_3199" x1="28" y1="12.7708" x2="28" y2="44.8333" gradientUnits="userSpaceOnUse"><stop stop-color="#2FB8FF"></stop><stop offset="1" stop-color="#9EECD9"></stop></linearGradient><linearGradient id="paint3_linear_0_3199" x1="28" y1="12.7708" x2="28" y2="44.8333" gradientUnits="userSpaceOnUse"><stop stop-color="#2FB8FF"></stop><stop offset="1" stop-color="#9EECD9"></stop></linearGradient><linearGradient id="paint4_linear_0_3199" x1="28" y1="12.7708" x2="28" y2="44.8333" gradientUnits="userSpaceOnUse"><stop stop-color="#2FB8FF"></stop><stop offset="1" stop-color="#9EECD9"></stop></linearGradient><linearGradient id="paint5_linear_0_3199" x1="28" y1="12.7708" x2="28" y2="44.8333" gradientUnits="userSpaceOnUse"><stop stop-color="#2FB8FF"></stop><stop offset="1" stop-color="#9EECD9"></stop></linearGradient></defs></svg>