<svg width="125" height="142" viewBox="0 0 125 142" fill="none" xmlns="http://www.w3.org/2000/svg">
  <g clip-path="url(#clip0_177_158)">
    <g filter="url(#filter0_f_177_158)">
      <path d="M86.1058 93.4898L85.3474 106.178C85.3212 106.62 84.9634 107 84.5307 107H54.2254C53.9205 107 53.6411 106.791 53.5002 106.514L31.9221 64.1907C29.1836 59.5615 33.043 55.216 36.984 55.2163C38.7276 55.2163 40.4877 56.0611 41.6988 58.1086L44.4594 62.451C45.0302 63.3495 45.821 63.7506 46.6826 63.7506C48.1009 63.7506 49.417 62.6582 49.417 60.8934V30.8553C49.417 26.9517 52.257 25 55.115 25C57.9729 25 60.8129 26.9517 60.8129 30.8553V47.9321C60.8129 48.4083 61.2898 48.7727 61.7236 48.7727C61.8051 48.7727 61.937 48.7596 62.0206 48.7323C62.8186 48.4692 64.0214 48.1791 65.3423 48.1791C67.6108 48.1791 70.3099 49.0359 72.1996 52.3566C72.3591 52.6367 72.6523 52.803 72.9527 52.803C73.0487 52.803 73.1496 52.7857 73.2446 52.7499C74.0046 52.4634 75.3331 52.0665 76.8547 52.0665C78.9726 52.0665 81.4673 52.8363 83.3276 55.7455C83.7713 56.4396 84.5228 56.8595 85.3308 56.9066C87.8994 57.0558 93.3657 58.3251 94.6672 66.2676C95.9166 73.8939 93.7632 81.4073 86.2401 93.0794C86.1617 93.2011 86.1144 93.3433 86.1058 93.4898Z" fill="url(#paint0_linear_177_158)" />
      <path d="M86.1058 93.4898L85.3474 106.178C85.3212 106.62 84.9634 107 84.5307 107H54.2254C53.9205 107 53.6411 106.791 53.5002 106.514L31.9221 64.1907C29.1836 59.5615 33.043 55.216 36.984 55.2163C38.7276 55.2163 40.4877 56.0611 41.6988 58.1086L44.4594 62.451C45.0302 63.3495 45.821 63.7506 46.6826 63.7506C48.1009 63.7506 49.417 62.6582 49.417 60.8934V30.8553C49.417 26.9517 52.257 25 55.115 25C57.9729 25 60.8129 26.9517 60.8129 30.8553V47.9321C60.8129 48.4083 61.2898 48.7727 61.7236 48.7727C61.8051 48.7727 61.937 48.7596 62.0206 48.7323C62.8186 48.4692 64.0214 48.1791 65.3423 48.1791C67.6108 48.1791 70.3099 49.0359 72.1996 52.3566C72.3591 52.6367 72.6523 52.803 72.9527 52.803C73.0487 52.803 73.1496 52.7857 73.2446 52.7499C74.0046 52.4634 75.3331 52.0665 76.8547 52.0665C78.9726 52.0665 81.4673 52.8363 83.3276 55.7455C83.7713 56.4396 84.5228 56.8595 85.3308 56.9066C87.8994 57.0558 93.3657 58.3251 94.6672 66.2676C95.9166 73.8939 93.7632 81.4073 86.2401 93.0794C86.1617 93.2011 86.1144 93.3433 86.1058 93.4898Z" fill="url(#paint1_linear_177_158)" />
    </g>
    <g filter="url(#filter1_f_177_158)">
      <path d="M86.1058 93.4898L85.3474 106.178C85.3212 106.62 84.9634 107 84.5307 107H54.2254C53.9205 107 53.6411 106.791 53.5002 106.514L31.9221 64.1907C29.1836 59.5615 33.043 55.216 36.984 55.2163C38.7276 55.2163 40.4877 56.0611 41.6988 58.1086L44.4594 62.451C45.0302 63.3495 45.821 63.7506 46.6826 63.7506C48.1009 63.7506 49.417 62.6582 49.417 60.8934V30.8553C49.417 26.9517 52.257 25 55.115 25C57.9729 25 60.8129 26.9517 60.8129 30.8553V47.9321C60.8129 48.4083 61.2898 48.7727 61.7236 48.7727C61.8051 48.7727 61.937 48.7596 62.0206 48.7323C62.8186 48.4692 64.0214 48.1791 65.3423 48.1791C67.6108 48.1791 70.3099 49.0359 72.1996 52.3566C72.3591 52.6367 72.6523 52.803 72.9527 52.803C73.0487 52.803 73.1496 52.7857 73.2446 52.7499C74.0046 52.4634 75.3331 52.0665 76.8547 52.0665C78.9726 52.0665 81.4673 52.8363 83.3276 55.7455C83.7713 56.4396 84.5228 56.8595 85.3308 56.9066C87.8994 57.0558 93.3657 58.3251 94.6672 66.2676C95.9166 73.8939 93.7632 81.4073 86.2401 93.0794C86.1617 93.2011 86.1144 93.3433 86.1058 93.4898Z" fill="url(#paint2_linear_177_158)" />
      <path d="M86.1058 93.4898L85.3474 106.178C85.3212 106.62 84.9634 107 84.5307 107H54.2254C53.9205 107 53.6411 106.791 53.5002 106.514L31.9221 64.1907C29.1836 59.5615 33.043 55.216 36.984 55.2163C38.7276 55.2163 40.4877 56.0611 41.6988 58.1086L44.4594 62.451C45.0302 63.3495 45.821 63.7506 46.6826 63.7506C48.1009 63.7506 49.417 62.6582 49.417 60.8934V30.8553C49.417 26.9517 52.257 25 55.115 25C57.9729 25 60.8129 26.9517 60.8129 30.8553V47.9321C60.8129 48.4083 61.2898 48.7727 61.7236 48.7727C61.8051 48.7727 61.937 48.7596 62.0206 48.7323C62.8186 48.4692 64.0214 48.1791 65.3423 48.1791C67.6108 48.1791 70.3099 49.0359 72.1996 52.3566C72.3591 52.6367 72.6523 52.803 72.9527 52.803C73.0487 52.803 73.1496 52.7857 73.2446 52.7499C74.0046 52.4634 75.3331 52.0665 76.8547 52.0665C78.9726 52.0665 81.4673 52.8363 83.3276 55.7455C83.7713 56.4396 84.5228 56.8595 85.3308 56.9066C87.8994 57.0558 93.3657 58.3251 94.6672 66.2676C95.9166 73.8939 93.7632 81.4073 86.2401 93.0794C86.1617 93.2011 86.1144 93.3433 86.1058 93.4898Z" fill="url(#paint3_linear_177_158)" />
    </g>
    <path d="M86.1058 93.4898L85.3474 106.178C85.3212 106.62 84.9634 107 84.5307 107H54.2254C53.9205 107 53.6411 106.791 53.5002 106.514L31.9221 64.1907C29.1836 59.5615 33.043 55.216 36.984 55.2163C38.7276 55.2163 40.4877 56.0611 41.6988 58.1086L44.4594 62.451C45.0302 63.3495 45.821 63.7506 46.6826 63.7506C48.1009 63.7506 49.417 62.6582 49.417 60.8934V30.8553C49.417 26.9517 52.257 25 55.115 25C57.9729 25 60.8129 26.9517 60.8129 30.8553V47.9321C60.8129 48.4083 61.2898 48.7727 61.7236 48.7727C61.8051 48.7727 61.937 48.7596 62.0206 48.7323C62.8186 48.4692 64.0214 48.1791 65.3423 48.1791C67.6108 48.1791 70.3099 49.0359 72.1996 52.3566C72.3591 52.6367 72.6523 52.803 72.9527 52.803C73.0487 52.803 73.1496 52.7857 73.2446 52.7499C74.0046 52.4634 75.3331 52.0665 76.8547 52.0665C78.9726 52.0665 81.4673 52.8363 83.3276 55.7455C83.7713 56.4396 84.5228 56.8595 85.3308 56.9066C87.8994 57.0558 93.3657 58.3251 94.6672 66.2676C95.9166 73.8939 93.7632 81.4073 86.2401 93.0794C86.1617 93.2011 86.1144 93.3433 86.1058 93.4898Z" fill="url(#paint4_linear_177_158)" />
    <path d="M86.1058 93.4898L85.3474 106.178C85.3212 106.62 84.9634 107 84.5307 107H54.2254C53.9205 107 53.6411 106.791 53.5002 106.514L31.9221 64.1907C29.1836 59.5615 33.043 55.216 36.984 55.2163C38.7276 55.2163 40.4877 56.0611 41.6988 58.1086L44.4594 62.451C45.0302 63.3495 45.821 63.7506 46.6826 63.7506C48.1009 63.7506 49.417 62.6582 49.417 60.8934V30.8553C49.417 26.9517 52.257 25 55.115 25C57.9729 25 60.8129 26.9517 60.8129 30.8553V47.9321C60.8129 48.4083 61.2898 48.7727 61.7236 48.7727C61.8051 48.7727 61.937 48.7596 62.0206 48.7323C62.8186 48.4692 64.0214 48.1791 65.3423 48.1791C67.6108 48.1791 70.3099 49.0359 72.1996 52.3566C72.3591 52.6367 72.6523 52.803 72.9527 52.803C73.0487 52.803 73.1496 52.7857 73.2446 52.7499C74.0046 52.4634 75.3331 52.0665 76.8547 52.0665C78.9726 52.0665 81.4673 52.8363 83.3276 55.7455C83.7713 56.4396 84.5228 56.8595 85.3308 56.9066C87.8994 57.0558 93.3657 58.3251 94.6672 66.2676C95.9166 73.8939 93.7632 81.4073 86.2401 93.0794C86.1617 93.2011 86.1144 93.3433 86.1058 93.4898Z" fill="url(#paint5_linear_177_158)" />
  </g>
  <defs>
    <filter id="filter0_f_177_158" x="1" y="-5" width="124" height="142" filterUnits="userSpaceOnUse" color-interpolation-filters="sRGB">
      <feFlood flood-opacity="0" result="BackgroundImageFix" />
      <feBlend mode="normal" in="SourceGraphic" in2="BackgroundImageFix" result="shape" />
      <feGaussianBlur stdDeviation="15" result="effect1_foregroundBlur_177_158" />
    </filter>
    <filter id="filter1_f_177_158" x="27" y="21" width="72" height="90" filterUnits="userSpaceOnUse" color-interpolation-filters="sRGB">
      <feFlood flood-opacity="0" result="BackgroundImageFix" />
      <feBlend mode="normal" in="SourceGraphic" in2="BackgroundImageFix" result="shape" />
      <feGaussianBlur stdDeviation="2" result="effect1_foregroundBlur_177_158" />
    </filter>
    <linearGradient id="paint0_linear_177_158" x1="63" y1="25" x2="63" y2="107" gradientUnits="userSpaceOnUse">
      <stop stop-color="#2FB8FF" />
      <stop offset="1" stop-color="#9EECD9" />
    </linearGradient>
    <linearGradient id="paint1_linear_177_158" x1="63" y1="25" x2="63" y2="107" gradientUnits="userSpaceOnUse">
      <stop stop-color="#2FB8FF" />
      <stop offset="1" stop-color="#9EECD9" />
    </linearGradient>
    <linearGradient id="paint2_linear_177_158" x1="63" y1="25" x2="63" y2="107" gradientUnits="userSpaceOnUse">
      <stop stop-color="#2FB8FF" />
      <stop offset="1" stop-color="#9EECD9" />
    </linearGradient>
    <linearGradient id="paint3_linear_177_158" x1="63" y1="25" x2="63" y2="107" gradientUnits="userSpaceOnUse">
      <stop stop-color="#2FB8FF" />
      <stop offset="1" stop-color="#9EECD9" />
    </linearGradient>
    <linearGradient id="paint4_linear_177_158" x1="63" y1="25" x2="63" y2="107" gradientUnits="userSpaceOnUse">
      <stop stop-color="#2FB8FF" />
      <stop offset="1" stop-color="#9EECD9" />
    </linearGradient>
    <linearGradient id="paint5_linear_177_158" x1="63" y1="25" x2="63" y2="107" gradientUnits="userSpaceOnUse">
      <stop stop-color="#2FB8FF" />
      <stop offset="1" stop-color="#9EECD9" />
    </linearGradient>
    <clipPath id="clip0_177_158">
      <rect width="125" height="142" fill="white" />
    </clipPath>
  </defs>
</svg>