<svg width="190" height="176" viewBox="0 0 190 176" fill="none" xmlns="http://www.w3.org/2000/svg">
  <g filter="url(#filter0_f_122_7906)">
    <path fill-rule="evenodd" clip-rule="evenodd" d="M64.8359 64.6696C60.833 68.6725 60.833 75.115 60.833 88.0001C60.833 100.885 60.833 107.328 64.8359 111.331C68.8388 115.333 75.2813 115.333 88.1663 115.333H93.2913C106.176 115.333 112.619 115.333 116.622 111.331C119.844 108.108 120.472 103.305 120.595 94.8334H122.333C125.554 94.8334 127.165 94.8334 128.165 93.8327C129.166 92.832 129.166 91.2213 129.166 88.0001C129.166 84.7788 129.166 83.1682 128.165 82.1675C127.165 81.1667 125.554 81.1667 122.333 81.1667H120.595C120.472 72.6949 119.844 67.8918 116.622 64.6696C112.619 60.6667 106.176 60.6667 93.2913 60.6667H88.1663C75.2813 60.6667 68.8388 60.6667 64.8359 64.6696ZM80.1564 76.5056C79.4691 75.2685 77.909 74.8228 76.6719 75.5101C75.4453 76.1915 74.9966 77.731 75.659 78.963L75.6762 78.9979C75.6996 79.0471 75.7444 79.1452 75.804 79.2943C75.9232 79.5923 76.1023 80.0956 76.2883 80.8209C76.6598 82.2698 77.0622 84.618 77.0622 88.0001C77.0622 91.3822 76.6598 93.7304 76.2883 95.1792C76.1023 95.9045 75.9232 96.4078 75.804 96.7058C75.7444 96.8549 75.6996 96.953 75.6762 97.0022L75.659 97.0372C74.9966 98.2692 75.4453 99.8086 76.6719 100.49C77.909 101.177 79.4691 100.732 80.1564 99.4945L77.9163 98.2501C80.1564 99.4945 80.1582 99.4912 80.1588 99.4901L80.1615 99.4853L80.1672 99.4749L80.1803 99.4506L80.2132 99.3879C80.238 99.3398 80.2683 99.2791 80.3033 99.2056C80.3733 99.0586 80.462 98.8605 80.5625 98.6092C80.7636 98.1064 81.0116 97.3925 81.2527 96.4522C81.7354 94.5698 82.1872 91.793 82.1872 88.0001C82.1872 84.2072 81.7354 81.4304 81.2527 79.548C81.0116 78.6077 80.7636 77.8938 80.5625 77.391C80.462 77.1397 80.3733 76.9415 80.3033 76.7945C80.2683 76.721 80.238 76.6604 80.2132 76.6123L80.1803 76.5496L80.1672 76.5253L80.1615 76.5149L80.1588 76.5101L80.1564 76.5056ZM77.9163 77.7501C80.1389 76.5153 80.1556 76.5046 80.1564 76.5056L77.9163 77.7501ZM88.6302 75.5101C89.8673 74.8228 91.4274 75.2685 92.1147 76.5056L89.8747 77.7501C92.1147 76.5056 92.1166 76.509 92.1172 76.5101L92.1198 76.5149L92.1255 76.5253L92.1387 76.5496L92.1716 76.6123C92.1963 76.6604 92.2267 76.721 92.2617 76.7945C92.3317 76.9415 92.4203 77.1397 92.5208 77.391C92.7219 77.8938 92.9699 78.6077 93.211 79.548C93.6937 81.4304 94.1455 84.2072 94.1455 88.0001C94.1455 91.793 93.6937 94.5698 93.211 96.4522C92.9699 97.3925 92.7219 98.1064 92.5208 98.6092C92.4203 98.8605 92.3317 99.0586 92.2617 99.2056C92.2267 99.2791 92.1963 99.3398 92.1716 99.3879L92.1387 99.4506L92.1255 99.4749L92.1198 99.4853L92.1172 99.4901L92.1147 99.4945L89.883 98.2547C92.0973 99.4849 92.114 99.4955 92.1147 99.4945C91.4274 100.732 89.8673 101.177 88.6302 100.49C87.4036 99.8086 86.955 98.2692 87.6174 97.0372L87.6345 97.0022C87.6579 96.953 87.7027 96.8549 87.7624 96.7058C87.8816 96.4078 88.0607 95.9045 88.2466 95.1792C88.6181 93.7304 89.0205 91.3822 89.0205 88.0001C89.0205 84.618 88.6181 82.2698 88.2466 80.8209C88.0607 80.0956 87.8816 79.5923 87.7624 79.2943C87.7027 79.1452 87.6579 79.0471 87.6345 78.9979L87.6174 78.963C86.955 77.731 87.4036 76.1915 88.6302 75.5101Z" fill="url(#paint0_linear_122_7906)" />
  </g>
  <g filter="url(#filter1_f_122_7906)">
    <path fill-rule="evenodd" clip-rule="evenodd" d="M64.8359 64.6696C60.833 68.6725 60.833 75.115 60.833 88.0001C60.833 100.885 60.833 107.328 64.8359 111.331C68.8388 115.333 75.2813 115.333 88.1663 115.333H93.2913C106.176 115.333 112.619 115.333 116.622 111.331C119.844 108.108 120.472 103.305 120.595 94.8334H122.333C125.554 94.8334 127.165 94.8334 128.165 93.8327C129.166 92.832 129.166 91.2213 129.166 88.0001C129.166 84.7788 129.166 83.1682 128.165 82.1675C127.165 81.1667 125.554 81.1667 122.333 81.1667H120.595C120.472 72.6949 119.844 67.8918 116.622 64.6696C112.619 60.6667 106.176 60.6667 93.2913 60.6667H88.1663C75.2813 60.6667 68.8388 60.6667 64.8359 64.6696ZM80.1564 76.5056C79.4691 75.2685 77.909 74.8228 76.6719 75.5101C75.4453 76.1915 74.9966 77.731 75.659 78.963L75.6762 78.9979C75.6996 79.0471 75.7444 79.1452 75.804 79.2943C75.9232 79.5923 76.1023 80.0956 76.2883 80.8209C76.6598 82.2698 77.0622 84.618 77.0622 88.0001C77.0622 91.3822 76.6598 93.7304 76.2883 95.1792C76.1023 95.9045 75.9232 96.4078 75.804 96.7058C75.7444 96.8549 75.6996 96.953 75.6762 97.0022L75.659 97.0372C74.9966 98.2692 75.4453 99.8086 76.6719 100.49C77.909 101.177 79.4691 100.732 80.1564 99.4945L77.9163 98.2501C80.1564 99.4945 80.1582 99.4912 80.1588 99.4901L80.1615 99.4853L80.1672 99.4749L80.1803 99.4506L80.2132 99.3879C80.238 99.3398 80.2683 99.2791 80.3033 99.2056C80.3733 99.0586 80.462 98.8605 80.5625 98.6092C80.7636 98.1064 81.0116 97.3925 81.2527 96.4522C81.7354 94.5698 82.1872 91.793 82.1872 88.0001C82.1872 84.2072 81.7354 81.4304 81.2527 79.548C81.0116 78.6077 80.7636 77.8938 80.5625 77.391C80.462 77.1397 80.3733 76.9415 80.3033 76.7945C80.2683 76.721 80.238 76.6604 80.2132 76.6123L80.1803 76.5496L80.1672 76.5253L80.1615 76.5149L80.1588 76.5101L80.1564 76.5056ZM77.9163 77.7501C80.1389 76.5153 80.1556 76.5046 80.1564 76.5056L77.9163 77.7501ZM88.6302 75.5101C89.8673 74.8228 91.4274 75.2685 92.1147 76.5056L89.8747 77.7501C92.1147 76.5056 92.1166 76.509 92.1172 76.5101L92.1198 76.5149L92.1255 76.5253L92.1387 76.5496L92.1716 76.6123C92.1963 76.6604 92.2267 76.721 92.2617 76.7945C92.3317 76.9415 92.4203 77.1397 92.5208 77.391C92.7219 77.8938 92.9699 78.6077 93.211 79.548C93.6937 81.4304 94.1455 84.2072 94.1455 88.0001C94.1455 91.793 93.6937 94.5698 93.211 96.4522C92.9699 97.3925 92.7219 98.1064 92.5208 98.6092C92.4203 98.8605 92.3317 99.0586 92.2617 99.2056C92.2267 99.2791 92.1963 99.3398 92.1716 99.3879L92.1387 99.4506L92.1255 99.4749L92.1198 99.4853L92.1172 99.4901L92.1147 99.4945L89.883 98.2547C92.0973 99.4849 92.114 99.4955 92.1147 99.4945C91.4274 100.732 89.8673 101.177 88.6302 100.49C87.4036 99.8086 86.955 98.2692 87.6174 97.0372L87.6345 97.0022C87.6579 96.953 87.7027 96.8549 87.7624 96.7058C87.8816 96.4078 88.0607 95.9045 88.2466 95.1792C88.6181 93.7304 89.0205 91.3822 89.0205 88.0001C89.0205 84.618 88.6181 82.2698 88.2466 80.8209C88.0607 80.0956 87.8816 79.5923 87.7624 79.2943C87.7027 79.1452 87.6579 79.0471 87.6345 78.9979L87.6174 78.963C86.955 77.731 87.4036 76.1915 88.6302 75.5101Z" fill="url(#paint1_linear_122_7906)" />
  </g>
  <path fill-rule="evenodd" clip-rule="evenodd" d="M64.8359 64.6696C60.833 68.6725 60.833 75.115 60.833 88.0001C60.833 100.885 60.833 107.328 64.8359 111.331C68.8388 115.333 75.2813 115.333 88.1663 115.333H93.2913C106.176 115.333 112.619 115.333 116.622 111.331C119.844 108.108 120.472 103.305 120.595 94.8334H122.333C125.554 94.8334 127.165 94.8334 128.165 93.8327C129.166 92.832 129.166 91.2213 129.166 88.0001C129.166 84.7788 129.166 83.1682 128.165 82.1675C127.165 81.1667 125.554 81.1667 122.333 81.1667H120.595C120.472 72.6949 119.844 67.8918 116.622 64.6696C112.619 60.6667 106.176 60.6667 93.2913 60.6667H88.1663C75.2813 60.6667 68.8388 60.6667 64.8359 64.6696ZM80.1564 76.5056C79.4691 75.2685 77.909 74.8228 76.6719 75.5101C75.4453 76.1915 74.9966 77.731 75.659 78.963L75.6762 78.9979C75.6996 79.0471 75.7444 79.1452 75.804 79.2943C75.9232 79.5923 76.1023 80.0956 76.2883 80.8209C76.6598 82.2698 77.0622 84.618 77.0622 88.0001C77.0622 91.3822 76.6598 93.7304 76.2883 95.1792C76.1023 95.9045 75.9232 96.4078 75.804 96.7058C75.7444 96.8549 75.6996 96.953 75.6762 97.0022L75.659 97.0372C74.9966 98.2692 75.4453 99.8086 76.6719 100.49C77.909 101.177 79.4691 100.732 80.1564 99.4945L77.9163 98.2501C80.1564 99.4945 80.1582 99.4912 80.1588 99.4901L80.1615 99.4853L80.1672 99.4749L80.1803 99.4506L80.2132 99.3879C80.238 99.3398 80.2683 99.2791 80.3033 99.2056C80.3733 99.0586 80.462 98.8605 80.5625 98.6092C80.7636 98.1064 81.0116 97.3925 81.2527 96.4522C81.7354 94.5698 82.1872 91.793 82.1872 88.0001C82.1872 84.2072 81.7354 81.4304 81.2527 79.548C81.0116 78.6077 80.7636 77.8938 80.5625 77.391C80.462 77.1397 80.3733 76.9415 80.3033 76.7945C80.2683 76.721 80.238 76.6604 80.2132 76.6123L80.1803 76.5496L80.1672 76.5253L80.1615 76.5149L80.1588 76.5101L80.1564 76.5056ZM77.9163 77.7501C80.1389 76.5153 80.1556 76.5046 80.1564 76.5056L77.9163 77.7501ZM88.6302 75.5101C89.8673 74.8228 91.4274 75.2685 92.1147 76.5056L89.8747 77.7501C92.1147 76.5056 92.1166 76.509 92.1172 76.5101L92.1198 76.5149L92.1255 76.5253L92.1387 76.5496L92.1716 76.6123C92.1963 76.6604 92.2267 76.721 92.2617 76.7945C92.3317 76.9415 92.4203 77.1397 92.5208 77.391C92.7219 77.8938 92.9699 78.6077 93.211 79.548C93.6937 81.4304 94.1455 84.2072 94.1455 88.0001C94.1455 91.793 93.6937 94.5698 93.211 96.4522C92.9699 97.3925 92.7219 98.1064 92.5208 98.6092C92.4203 98.8605 92.3317 99.0586 92.2617 99.2056C92.2267 99.2791 92.1963 99.3398 92.1716 99.3879L92.1387 99.4506L92.1255 99.4749L92.1198 99.4853L92.1172 99.4901L92.1147 99.4945L89.883 98.2547C92.0973 99.4849 92.114 99.4955 92.1147 99.4945C91.4274 100.732 89.8673 101.177 88.6302 100.49C87.4036 99.8086 86.955 98.2692 87.6174 97.0372L87.6345 97.0022C87.6579 96.953 87.7027 96.8549 87.7624 96.7058C87.8816 96.4078 88.0607 95.9045 88.2466 95.1792C88.6181 93.7304 89.0205 91.3822 89.0205 88.0001C89.0205 84.618 88.6181 82.2698 88.2466 80.8209C88.0607 80.0956 87.8816 79.5923 87.7624 79.2943C87.7027 79.1452 87.6579 79.0471 87.6345 78.9979L87.6174 78.963C86.955 77.731 87.4036 76.1915 88.6302 75.5101Z" fill="url(#paint2_linear_122_7906)" />
  <defs>
    <filter id="filter0_f_122_7906" x="0.833008" y="0.666748" width="188.333" height="174.667" filterUnits="userSpaceOnUse" color-interpolation-filters="sRGB">
      <feFlood flood-opacity="0" result="BackgroundImageFix" />
      <feBlend mode="normal" in="SourceGraphic" in2="BackgroundImageFix" result="shape" />
      <feGaussianBlur stdDeviation="30" result="effect1_foregroundBlur_122_7906" />
    </filter>
    <filter id="filter1_f_122_7906" x="52.833" y="52.6667" width="84.333" height="70.6667" filterUnits="userSpaceOnUse" color-interpolation-filters="sRGB">
      <feFlood flood-opacity="0" result="BackgroundImageFix" />
      <feBlend mode="normal" in="SourceGraphic" in2="BackgroundImageFix" result="shape" />
      <feGaussianBlur stdDeviation="4" result="effect1_foregroundBlur_122_7906" />
    </filter>
    <linearGradient id="paint0_linear_122_7906" x1="94.9995" y1="60.6667" x2="94.9995" y2="115.333" gradientUnits="userSpaceOnUse">
      <stop stop-color="#2FB8FF" />
      <stop offset="1" stop-color="#9EECD9" />
    </linearGradient>
    <linearGradient id="paint1_linear_122_7906" x1="94.9995" y1="60.6667" x2="94.9995" y2="115.333" gradientUnits="userSpaceOnUse">
      <stop stop-color="#2FB8FF" />
      <stop offset="1" stop-color="#9EECD9" />
    </linearGradient>
    <linearGradient id="paint2_linear_122_7906" x1="94.9995" y1="60.6667" x2="94.9995" y2="115.333" gradientUnits="userSpaceOnUse">
      <stop stop-color="#2FB8FF" />
      <stop offset="1" stop-color="#9EECD9" />
    </linearGradient>
  </defs>
</svg>